<svg xmlns="http://www.w3.org/2000/svg" viewBox="0 0 46 21" width="46" height="21">
	<style>
		tspan { white-space:pre }
		.shp0 { fill: #31332e } 
	</style>
	<g id="Group 1">
		<g id="Toolbar">
			<g id="Shape">
				<path id="Rectangle " class="shp0" d="M1.62 16.99L44.38 16.99C45.28 16.99 46 17.71 46 18.6L46 19.38C46 20.27 45.28 21 44.38 21L1.62 21C0.72 21 0 20.27 0 19.38L0 18.6C0 17.71 0.72 16.99 1.62 16.99ZM1.62 8.99L44.38 8.99C45.28 8.99 46 9.72 46 10.61L46 11.39C46 12.28 45.28 13.01 44.38 13.01L1.62 13.01C0.72 13.01 0 12.28 0 11.39L0 10.61C0 9.72 0.72 8.99 1.62 8.99ZM1.62 0L44.38 0C45.28 0 46 0.72 46 1.62L46 2.4C46 3.29 45.28 4.01 44.38 4.01L1.62 4.01C0.72 4.01 0 3.29 0 2.4L0 1.62C0 0.72 0.72 0 1.62 0Z" />
			</g>
		</g>
	</g>
</svg>